<svg width="32" height="33" viewBox="0 0 32 33" fill="none" xmlns="http://www.w3.org/2000/svg">
<path fill="#E8EBED" fill-rule="evenodd" clip-rule="evenodd" d="M16 32.25C24.8366 32.25 32 25.0866 32 16.25C32 7.41344 24.8366 0.25 16 0.25C7.16344 0.25 0 7.41344 0 16.25C0 25.0866 7.16344 32.25 16 32.25Z" />
<mask id="mask0_1089_16771" style="mask-type:alpha" maskUnits="userSpaceOnUse" x="0" y="0" width="32" height="33">
<path fill-rule="evenodd" clip-rule="evenodd" d="M16 32.25C24.8366 32.25 32 25.0866 32 16.25C32 7.41344 24.8366 0.25 16 0.25C7.16344 0.25 0 7.41344 0 16.25C0 25.0866 7.16344 32.25 16 32.25Z" fill="white"/>
</mask>
<g mask="url(#mask0_1089_16771)">
<path fill="#7B858F" fill-rule="evenodd" clip-rule="evenodd" d="M23.5 23.1838C23.5 23.4254 23.3041 23.6213 23.0625 23.6213H9.9375C9.69588 23.6213 9.5 23.4254 9.5 23.1838V21.8717C9.5 19.25 11.4649 17.3241 13.6619 16.3481C12.7213 15.4656 12.125 14.1526 12.125 12.6864C12.125 10.0291 14.0838 7.875 16.5 7.875C18.9162 7.875 20.875 10.0291 20.875 12.6864C20.875 14.1519 20.2792 15.4644 19.3394 16.3469C21.5384 17.3222 23.5 19.2456 23.5 21.8717V23.1838ZM11.3228 21.8717H21.75C21.75 19.25 19.5625 17.4977 16.5 17.4977C13.4375 17.4977 11.25 19.25 11.3228 21.8717ZM16.5 15.7481C17.9497 15.7481 19.125 14.3773 19.125 12.6864C19.125 10.9954 17.9497 9.62459 16.5 9.62459C15.0503 9.62459 13.875 10.9954 13.875 12.6864C13.875 14.3773 15.0503 15.7481 16.5 15.7481Z" />
</g>
</svg>
